<svg xmlns="http://www.w3.org/2000/svg" viewBox="0 0 496 512" aria-hidden="true">
  <path fill="#1DB954" d="M248 8C111 8 0 119 0 256s111 248 248 248 248-111 248-248S385 8 248 8zm121.8 357.2c-7.8 12.8-24.5 16.8-37.3 9-102.5-62.6-231.2-76.8-383.2-42.1-14.6 3.3-29.2-5.9-32.5-20.5s5.9-29.2 20.5-32.5c167.7-38.2 315.8-21.8 430.9 49.3 12.6 7.7 16.6 24.3 9 37.1zm40.7-89.3c-8.8 14.3-27.5 18.8-41.8 10-118.5-72.9-299.1-94-439.7-51.4-16.5 5-33.8-4.3-38.8-20.8s4.3-33.8 20.8-38.8c161.1-55.1 360.4-29.7 497.4 56.9 13.8 8.5 18.2 27.1 9.7 41.3zm4.5-92.4c-105.2-62.5-279.1-68.2-386.2-37.5-19.7 5.6-40.3-5.5-45.9-25.2-5.6-19.7 5.5-40.3 25.2-45.9 122.9-35.1 320.5-28.3 442.2 43.6 17.7 10.5 23.5 33.3 13 51.1z"/>
</svg>
