<svg viewBox="0 0 24 24" xmlns="http://www.w3.org/2000/svg" role="img" aria-hidden="true">
  <path fill="#FFFFFF" d="M12 .5C5.65.5.5 5.65.5 12c0 5.08 3.29 9.39 7.86 10.91.58.11.79-.25.79-.56 0-.28-.01-1.02-.02-2-3.2.7-3.88-1.54-3.88-1.54-.53-1.35-1.3-1.71-1.3-1.71-1.06-.73.08-.71.08-.71 1.17.08 1.79 1.2 1.79 1.2 1.04 1.78 2.73 1.27 3.4.97.11-.76.41-1.27.74-1.56-2.56-.29-5.25-1.28-5.25-5.7 0-1.26.45-2.29 1.19-3.1-.12-.29-.52-1.46.11-3.04 0 0 .97-.31 3.18 1.18a11.1 11.1 0 0 1 2.9-.39c.98 0 1.97.13 2.9.39 2.2-1.49 3.17-1.18 3.17-1.18.63 1.58.23 2.75.11 3.04.74.81 1.19 1.84 1.19 3.1 0 4.43-2.7 5.41-5.28 5.69.42.36.8 1.08.8 2.18 0 1.57-.01 2.84-.01 3.22 0 .31.21.68.8.56A10.52 10.52 0 0 0 23.5 12C23.5 5.65 18.35.5 12 .5z"/>
</svg>
