<svg viewBox="0 0 24 24" xmlns="http://www.w3.org/2000/svg" role="img" aria-hidden="true">
  <rect width="24" height="24" rx="4" fill="#FFFFFF"/>
  <path fill="#000000" d="M4.46 4.21c.75.6 1.03.56 2.43.47l13.22-.79c.28 0 .05-.28-.05-.33L17.86 1.97c-.42-.33-.98-.7-2.06-.61L3.01 2.3c-.47.05-.56.28-.37.47zm.8 3.08v13.9c0 .75.37 1.03 1.21.98l14.52-.84c.84-.05.94-.56.94-1.17V6.35c0-.61-.23-.93-.75-.89L4.9 6.3c-.56.05-.75.33-.75.93zm14.34.75c.09.42 0 .84-.42.89l-.7.14v10.26c-.61.33-1.17.51-1.64.51-.75 0-.94-.23-1.5-.93l-4.58-7.19v6.95l-1.4.02s0 .84-1.17.84l-3.22.19c-.09-.19 0-.65.33-.75l.84-.23V9.85l-1.12-.09c-.09-.42.14-1.03.79-1.07l3.46-.23 4.76 7.28v-6.44l-1.22-.14c-.09-.51.28-.89.75-.93zM1.94 1.04l13.31-.98c1.63-.14 2.06-.05 3.08.7l4.25 2.99c.7.51.93.65.93 1.21v16.38c0 1.03-.37 1.63-1.68 1.73l-15.46.93c-.98.05-1.45-.09-1.96-.75L1.1 18.3c-.56-.75-.79-1.31-.79-1.96V2.67c0-.84.37-1.54 1.45-1.63z"/>
</svg>
