<svg viewBox="0 0 24 24" xmlns="http://www.w3.org/2000/svg" role="img" aria-hidden="true">
  <rect width="24" height="24" rx="4" fill="#0078D4"/>
  <path fill="#FFFFFF" d="M7.88 12.04q0 .45-.11.87-.1.41-.33.74-.22.33-.58.52-.37.2-.87.2t-.85-.2q-.35-.21-.57-.55-.22-.33-.33-.75-.1-.42-.1-.86t.1-.87q.1-.43.34-.76.22-.34.59-.54.36-.2.87-.2t.86.2q.35.21.57.55.22.34.31.77.1.43.1.88zM20.5 7.5v9c0 .55-.45 1-1 1H9.5c-.55 0-1-.45-1-1v-9c0-.55.45-1 1-1h10c.55 0 1 .45 1 1zm-4.75-3.25v2.5h2.5v-2.5zm0 3.75v2.5h2.5v-2.5zm0 3.75v1.5l2.5-1.5zm-4.5-9v2.5h3v-2.5zm0 3.75v2.5h3v-2.5zm0 3.75v1.7l2 1.2 1.1-.65v-2.25z"/>
</svg>
