<svg viewBox="0 0 24 24" xmlns="http://www.w3.org/2000/svg" role="img" aria-hidden="true">
  <path fill="#3ECF8E" d="M11.9 1.04c-.02 0-.04.01-.06.02L2.1 8.3c-.04.03-.01.09.04.08l2.45-.28c.05 0 .09.03.1.07l1.43 10.6c.01.06.08.08.12.04l2.08-1.9c.03-.03.08-.03.11 0l3.77 2.74c.04.03.1 0 .1-.05l.01-14.2c0-.04-.04-.07-.08-.06l-1.14.17z"/>
  <path fill="#3ECF8E" d="M13.73 2.06c-.02 0-.04.01-.05.03l-7.2 6.64c-.03.03 0 .08.04.07l1.9-.22c.05 0 .09.03.1.07l.99 7.34c.01.04.05.07.09.05l1.44-1.32c.03-.03.08-.03.11 0l2.61 1.9c.03.02.07 0 .07-.04V2.12c0-.04-.03-.07-.07-.06h-.03z"/>
</svg>
